<?xml version="1.0" standalone="no"?>
<!DOCTYPE svg PUBLIC "-//W3C//DTD SVG 20010904//EN"
 "http://www.w3.org/TR/2001/REC-SVG-20010904/DTD/svg10.dtd">
<svg version="1.0" xmlns="http://www.w3.org/2000/svg"
 width="30.000000pt" height="30.000000pt" viewBox="0 0 30.000000 30.000000"
 preserveAspectRatio="xMidYMid meet">
<metadata>
Created by potrace 1.16, written by Peter Selinger 2001-2019
</metadata>
<g transform="translate(0.000000,30.000000) scale(0.075000,-0.075000)"
fill="#000000" stroke="none">
<path d="M10 380 c0 -22 70 -373 75 -379 5 -4 50 28 50 37 1 18 27 52 36 47 5
-4 -1 -15 -13 -25 -13 -11 -20 -19 -15 -20 9 0 244 157 251 169 3 5 -9 15 -27
22 -17 7 -93 42 -167 79 -198 96 -190 93 -190 70z m229 -154 c6 -7 -18 -45
-67 -108 -87 -108 -86 -108 -100 12 -9 76 -6 82 58 115 31 16 31 17 13 37 -12
14 -1 10 35 -12 28 -18 56 -38 61 -44z"/>
</g>
</svg>
